P2
# feep.pgm
24 7
35
20 20 20 20 20 20 20 20 20 20 20 20 20 20 20 20 20 20 20 20 20 20 20 20 
20 23 23 23 23 20 20 27 27 27 27 20 20 31 31 31 31 20 20 35 35 35 35 20 
20 23 20 20 20 20 20 27 20 20 20 20 20 31 20 20 20 20 20 35 20 20 35 20 
20 23 23 23 20 20 20 27 27 27 20 20 20 31 31 31 20 20 20 35 35 35 35 20 
20 23 20 20 20 20 20 27 20 20 20 20 20 31 20 20 20 20 20 35 20 20 20 20 
20 23 20 20 20 20 20 27 27 27 27 20 20 31 31 31 31 20 20 35 20 20 20 20 
20 20 20 20 20 20 20 20 20 20 20 20 20 20 20 20 20 20 20 20 20 20 20 20 
