P2
# feep.pgm
24 7
25
10 10 10 10 10 10 10 10 10 10 10 10 10 10 10 10 10 10 10 10 10 10 10 10 
10 13 13 13 13 10 10 17 17 17 17 10 10 21 21 21 21 10 10 25 25 25 25 10 
10 13 10 10 10 10 10 17 10 10 10 10 10 21 10 10 10 10 10 25 10 10 25 10 
10 13 13 13 10 10 10 17 17 17 10 10 10 21 21 21 10 10 10 25 25 25 25 10 
10 13 10 10 10 10 10 17 10 10 10 10 10 21 10 10 10 10 10 25 10 10 10 10 
10 13 10 10 10 10 10 17 17 17 17 10 10 21 21 21 21 10 10 25 10 10 10 10 
10 10 10 10 10 10 10 10 10 10 10 10 10 10 10 10 10 10 10 10 10 10 10 10 
